Screen : 
http://www.fun4hunt.com/share-8DBB_4D1364CD.html
 
http://www.fun4hunt.com/share-5DE6_4D1364CD.html


Beth (jessica drake) is being blackmailed: Write about her famous friends sexy escapades for a sleazy publisher or the editor will out her fathers' not so legal business dealings. With a pen name to protect her, Beth reluctantly complies and in doing so betrays the only true friend she has in Jazelle (Kirsten Price). Can she save her friendship and her fathers' reputation? Or will she destroy everyone she knows by doing what is right ... it's tough to be a tattle tale ...

{Cast}

Dylan Ryder
Georgia Jones
Jessica Drake
Kirsten Price
Marcus London
Monique Alexander
Randy Spears
Rocco Reed

Format : MPEG-4
Format profile : Base Media
Codec ID : isom
File size : 1.52 GiB
Duration : 1h 29mn
Overall bit rate : 2 438 Kbps
Encoded date : UTC 2010-10-10 14:26:37
Tagged date : UTC 2010-10-10 14:26:37
Video #1
ID : 1
Format : AVC
Format/Info : Advanced Video Codec
Format profile : High@L4.1
Format settings, CABAC : Yes
Format settings, ReFrames : 4 frames
Codec ID : avc1
Codec ID/Info : Advanced Video Coding
Duration : 1h 29mn
Bit rate mode : Variable
Bit rate : 2 342 Kbps
Maximum bit rate : 8 151 Kbps
Width : 1 280 pixels
Height : 720 pixels
Display aspect ratio : 16:9
Frame rate mode : Constant
Frame rate : 23.976 fps
Resolution : 24 bits
Colorimetry : 4:2:0
Scan type : Progressive
Bits/(Pixel*Frame) : 0.106
Stream size : 1.46 GiB (96%)
Writing library : x264 core 85 r1442 781d300
Encoding settings : cabac=1 / ref=4 / deblock=1:0:0 / analyse=0x3:0x113 / me=umh / subme=8 / psy=1 / psy_rd=1.00:0.00 / mixed_ref=1 / me_range=16 / chroma_me=1 / trellis=1 / 8x8dct=1 / cqm=0 / deadzone=21,11 / fast_pskip=1 / chroma_qp_offset=-2 / threads=4 / sliced_threads=0 / nr=0 / decimate=1 / mbaff=0 / constrained_intra=0 / bframes=3 / b_pyramid=0 / b_adapt=2 / b_bias=0 / direct=3 / wpredb=1 / wpredp=2 / keyint=250 / keyint_min=25 / scenecut=40 / intra_refresh=0 / rc_lookahead=40 / rc=crf / mbtree=1 / crf=21.5 / qcomp=0.60 / qpmin=10 / qpmax=51 / qpstep=4 / ip_ratio=1.41 / aq=1:1.00
Encoded date : UTC 2010-10-10 14:26:37
Tagged date : UTC 2010-10-10 14:28:10
Audio #2
ID : 2
Format : AAC
Format/Info : Advanced Audio Codec
Format version : Version 4
Format profile : LC
Format settings, SBR : No
Codec ID : 40
Duration : 1h 29mn
Bit rate mode : Variable
Bit rate : 96.0 Kbps
Maximum bit rate : 108 Kbps
Channel(s) : 2 channels
Channel positions : L R
Sampling rate : 44.1 KHz
Resolution : 16 bits
Stream size : 61.3 MiB (4%)
Encoded date : UTC 2010-10-10 14:28:07
Tagged date : UTC 2010-10-10 14:28:10